<svg width="513" height="513" viewBox="0 0 513 513" fill="none" xmlns="http://www.w3.org/2000/svg">
<rect x="0.19043" y="0.189697" width="512" height="512" rx="116" fill="white"/>
<path d="M200.189 210.328C200.189 204.729 204.728 200.19 210.328 200.19H302.05C307.65 200.19 312.189 204.729 312.189 210.328V302.051C312.189 307.65 307.65 312.19 302.05 312.19H210.328C204.728 312.19 200.189 307.65 200.189 302.051V210.328Z" fill="#0052FF"/>
<path fill-rule="evenodd" clip-rule="evenodd" d="M113.405 0.189697C50.8783 0.189697 0.19043 50.8776 0.19043 113.404V398.975C0.19043 461.502 50.8783 512.19 113.405 512.19H398.976C461.503 512.19 512.19 461.502 512.19 398.975V113.404C512.19 50.8776 461.503 0.189697 398.976 0.189697H113.405ZM436.19 256.19C436.19 355.601 355.601 436.19 256.19 436.19C156.778 436.19 76.1898 355.601 76.1898 256.19C76.1898 156.778 156.778 76.1897 256.19 76.1897C355.601 76.1897 436.19 156.778 436.19 256.19Z" fill="#0052FF"/>
</svg>
