<svg width="240" height="56" viewBox="0 0 240 56" color="#010613" fill="none" xmlns="http://www.w3.org/2000/svg">
<path class="secondary" d="M0.120605 27.8721C0.120605 12.4787 12.5993 0 27.9927 0C43.376 0 55.2614 12.2468 55.6234 27.7514C55.6234 32.6984 53.9342 36.8611 49.7111 40.7825C46.1425 44.0962 40.0585 44.5832 35.5945 42.1097C32.4084 40.2718 29.9528 36.3575 27.872 33.4827L24.0109 39.3949H15.6855L23.5283 27.751L15.9268 16.2889H24.4936L27.9323 22.2011L31.3108 16.2889H39.9378L32.095 27.7514C32.095 27.7514 35.8354 33.4827 37.8866 35.7148C39.9378 37.947 43.6782 38.0073 46.0914 35.5942C48.7446 32.941 49.3385 30.8284 49.3492 27.7514C49.3905 15.8417 39.9307 6.27423 27.9927 6.27423C16.0645 6.27423 6.39483 15.9439 6.39483 27.8721C6.39483 39.8002 16.0645 49.4699 27.9927 49.4699C29.6425 49.4699 31.224 49.3313 32.7587 48.9872L34.2066 55.0805C32.0228 55.5702 30.1377 55.7441 27.9927 55.7441C12.5993 55.7441 0.120605 43.2654 0.120605 27.8721Z" fill="#FC4F37"/>
<path class="primary" d="M90.668 27.7263L104.183 9.54449H93.6982L85.2742 21.7263L76.7289 9.54449H65.7595L79.0925 28.1506L65.0322 47.1808H75.4562L84.5469 34.3324L93.577 47.1808H104.607L90.668 27.7263Z" fill="currentColor"/>
<path class="primary" d="M133.637 35.7263H133.515L124.978 9.54449H110.667V47.2415H119.516V19.4839H119.758L129.091 47.2415H137.394L146.667 19.4839H146.909V47.2415H156.363V9.54449H142.242L133.637 35.7263Z" fill="currentColor"/>
<path class="primary" d="M162.666 9.48389V17.4233H175.971L175.939 47.1808H185.454L185.472 17.4233H198.726V9.48389H162.666Z" fill="currentColor"/>
<path class="primary" d="M223.695 9.48389H204.908V47.1808H214.423V35.4233H223.513C233.169 35.4233 238.967 30.7918 238.967 22.2718C238.967 13.855 233.158 9.53789 223.709 9.53789L223.695 9.48389ZM214.423 27.6051V17.4233H222.786C226.762 17.4233 229.392 18.7537 229.392 22.5748C229.392 26.3443 226.787 27.5445 222.604 27.5445L214.423 27.6051Z" fill="currentColor"/>
</svg>
