<svg width="24" height="24" viewBox="0 0 24 24" fill="none" xmlns="http://www.w3.org/2000/svg">
<path d="M2 12C2 6.47715 6.47715 2 12 2C17.5193 2 21.7835 6.39394 21.9134 11.9567C21.9134 13.7316 21.3074 15.2251 19.7922 16.632C18.5119 17.8209 16.329 17.9957 14.7274 17.1082C13.5843 16.4488 12.7033 15.0444 11.9567 14.013L10.5714 16.1342H7.58442L10.3983 11.9566L7.671 7.84416H10.7446L11.9784 9.96537L13.1905 7.84416H16.2857L13.4719 11.9567C13.4719 11.9567 14.8139 14.013 15.5498 14.8139C16.2857 15.6147 17.6277 15.6364 18.4935 14.7706C19.4454 13.8186 19.6585 13.0607 19.6623 11.9567C19.6772 7.68373 16.2832 4.25108 12 4.25108C7.72039 4.25108 4.25108 7.72039 4.25108 12C4.25108 16.2796 7.72039 19.7489 12 19.7489C12.5919 19.7489 13.1593 19.6992 13.71 19.5758L14.2294 21.7619C13.4459 21.9376 12.7696 22 12 22C6.47715 22 2 17.5228 2 12Z" fill="black"/>
</svg>
