<svg width="24" height="24" viewBox="0 0 24 24" fill="none" xmlns="http://www.w3.org/2000/svg">
<path d="M0 12C0 5.37257 5.37256 0 12 0C18.6231 0 23.7403 5.27272 23.8961 11.9481C23.8961 14.0779 23.1688 15.8701 21.3506 17.5585C19.8142 18.9851 17.1948 19.1948 15.2729 18.1299C13.9012 17.3386 12.8439 15.6533 11.9481 14.4156L10.2857 16.961H6.70129L10.0779 11.9479L6.80518 7.013H10.4935L11.974 9.55844L13.4286 7.013H17.1429L13.7662 11.9481C13.7662 11.9481 15.3766 14.4156 16.2597 15.3766C17.1428 16.3377 18.7532 16.3636 19.7922 15.3247C20.9345 14.1824 21.1902 13.2728 21.1948 11.9481C21.2126 6.82047 17.1398 2.7013 12 2.7013C6.86447 2.7013 2.7013 6.86447 2.7013 12C2.7013 17.1355 6.86447 21.2987 12 21.2987C12.7103 21.2987 13.3912 21.239 14.052 21.0909L14.6753 23.7143C13.7351 23.9251 12.9235 24 12 24C5.37256 24 0 18.6274 0 12Z" fill="#FC4F37"/>
</svg>
